<svg viewBox="-2 -2 1848 448">
<path d="M188.068 197.511C204.342 201.794 217.841 208.609 228.567 217.954C239.293 226.91 248.539 238.787 256.306 253.584C264.073 267.992 272.209 287.851 280.716 313.162L325.098 444H246.32L204.157 321.339C198.979 306.153 194.171 294.666 189.733 286.878C185.664 278.7 179.747 271.886 171.98 266.434C164.213 260.983 153.303 257.089 139.248 254.752L78.2232 326.012V444H0V35.1316H78.2232V222.627L235.224 35.1316H327.317L188.068 197.511Z" fill="white"></path>
<path d="M462.584 33.3756H368.642L463.879 241.063H368.642V444H562.356V241.063L462.584 33.3756Z" fill="#48A680"></path>
<path d="M430.631 316.19H502.95V392.332H430.631V316.19Z" fill="#1D1D1D"></path>
<path d="M683.427 441.58C681.837 443.042 679.557 443.345 677.696 442.295C660.488 432.592 648.391 421.673 641.406 409.538C634.009 396.299 630.31 377.997 630.31 354.633V90.6209C630.31 80.1071 628.276 71.5404 624.208 64.9206C621.173 59.4892 616.023 53.6646 608.755 47.4468C606.196 45.2573 606.031 41.1482 608.514 38.8641L649.315 1.33792C650.905 -0.124123 653.185 -0.427285 655.045 0.623652C672.254 10.348 684.351 21.4612 691.336 33.9634C698.733 46.8136 702.431 64.9206 702.431 88.2845V352.297C702.431 362.81 704.28 371.377 707.979 377.997C711.319 383.431 716.652 389.259 723.979 395.48C726.546 397.659 726.711 401.769 724.228 404.053L683.427 441.58Z" fill="white"></path>
<path d="M864.327 33.3756H770.386L865.623 241.063H770.386V444H964.099V241.063L864.327 33.3756Z" fill="#48A680"></path>
<path d="M832.374 316.19H904.694V392.332H832.374V316.19Z" fill="#1D1D1D"></path>
<path d="M1279.88 437.102C1280.79 440.569 1278.32 444 1274.9 444H1211.84C1209.52 444 1207.49 442.373 1206.86 440.02L1183.51 351.713C1180.55 340.809 1176.11 332.827 1170.19 327.765C1164.63 322.638 1155.47 319.234 1142.71 317.551C1141.15 317.345 1139.59 317.938 1138.49 319.118L1105.66 354.213C1104.71 355.231 1104.17 356.602 1104.17 358.03V438.561C1104.17 441.565 1101.86 444 1099.01 444H1037.22C1034.37 444 1032.05 441.565 1032.05 438.561V97.6301C1032.05 87.1163 1030.02 78.5495 1025.95 71.9298C1022.92 66.4984 1017.77 60.6737 1010.5 54.4559C1007.94 52.2664 1007.77 48.1573 1010.26 45.8733L1051.06 8.34708C1052.65 6.88504 1054.93 6.58188 1056.79 7.63282C1074 17.3571 1086.09 28.4704 1093.08 40.9726C1100.48 53.8227 1104.17 71.9298 1104.17 95.2937V250.085C1104.17 254.972 1109.82 257.379 1113.05 253.87L1189.2 171.128C1190.17 170.071 1191.51 169.474 1192.91 169.474H1266.01C1270.6 169.474 1272.91 175.299 1269.69 178.734L1196.53 256.729C1193.72 259.726 1195.07 264.849 1198.83 266.273C1212.44 271.414 1223.23 279.645 1231.22 290.966C1241.2 304.595 1249.9 324.844 1257.29 351.713L1279.88 437.102Z" fill="white"></path>
<path d="M1559.36 352.297C1559.36 362.81 1561.21 371.377 1564.91 377.997C1568.25 383.431 1573.58 389.259 1580.91 395.48C1583.48 397.659 1583.64 401.769 1581.16 404.053L1540.35 441.582C1538.77 443.043 1536.49 443.347 1534.63 442.294C1518.52 433.158 1506.56 422.205 1498.74 409.435C1496.6 405.948 1491.6 405.499 1489.01 408.622C1481.59 417.549 1472.31 425.253 1461.17 431.734C1447.11 439.911 1429.73 444 1409.02 444C1382.76 444 1361.86 436.991 1346.33 422.973C1330.79 408.565 1323.03 388.316 1323.03 362.226C1323.03 338.862 1328.76 320.95 1340.23 308.489C1352.06 295.639 1365.56 286.878 1380.72 282.205C1395.89 277.532 1412.72 274.222 1431.21 272.275L1457.84 269.355C1468.56 268.187 1475.96 266.24 1480.03 263.514C1484.47 260.788 1486.87 256.31 1487.24 250.08C1486.5 238.398 1482.8 228.468 1476.15 220.291C1469.86 212.113 1457.65 208.025 1439.53 208.025C1427.7 208.025 1417.34 210.361 1408.46 215.034C1400.58 219.183 1392.56 225.634 1384.38 234.387C1382.58 236.322 1379.71 236.659 1377.59 235.108L1336.33 204.846C1333.92 203.076 1333.38 199.536 1335.28 197.17C1345.42 184.53 1357.79 174.713 1372.4 167.722C1388.68 159.544 1411.05 155.456 1439.53 155.456C1519.42 155.456 1559.36 189.528 1559.36 257.673V352.297ZM1427.33 389.679C1446.56 389.679 1461.35 384.811 1471.71 375.076C1482.06 364.952 1487.24 352.686 1487.24 338.278V321.594C1487.24 317.797 1483.59 315.052 1480.08 315.89C1473.71 317.409 1464.82 318.836 1453.4 320.171L1436.76 321.924C1424.18 323.092 1413.64 326.207 1405.13 331.269C1396.63 335.942 1392.37 344.898 1392.37 358.138C1392.37 368.262 1395.52 376.05 1401.81 381.502C1408.09 386.953 1416.6 389.679 1427.33 389.679Z" fill="white"></path>
<path d="M1795.97 162.465C1813.86 162.465 1829.18 167.181 1841.95 176.613C1843.69 177.899 1844.39 180.232 1843.79 182.379L1829.03 234.831C1828.04 238.343 1824.1 239.837 1821.1 237.993C1815.48 234.545 1810.06 231.954 1804.84 230.22C1797.82 227.884 1789.13 226.716 1778.77 226.716C1754.56 226.716 1737.08 243.571 1726.33 277.28C1726.16 277.829 1726.07 278.411 1726.07 278.989V438.561C1726.07 441.565 1723.75 444 1720.9 444H1659.11C1656.26 444 1653.95 441.565 1653.95 438.561V254.168C1653.95 243.654 1651.91 235.088 1647.84 228.468C1644.81 223.037 1639.66 217.212 1632.39 210.994C1629.83 208.805 1629.67 204.696 1632.15 202.411L1672.91 164.926C1674.52 163.444 1676.84 163.155 1678.71 164.246C1689.82 170.724 1698.77 177.529 1705.54 184.661C1710.04 189.399 1713.79 194.715 1716.78 200.607C1718.95 204.88 1725.38 205.398 1727.95 201.377C1734.34 191.385 1742.03 183.087 1751.03 176.483C1763.24 167.138 1778.22 162.465 1795.97 162.465Z" fill="white"></path>
</svg>
